<svg width="15" height="13" viewBox="0 0 15 13" fill="none" xmlns="http://www.w3.org/2000/svg">
<path fill-rule="evenodd" clip-rule="evenodd" d="M4.10001 0.549988H2.40001V4.79999H0.700012V10.75H1.55001C1.55001 11.6889 2.31113 12.45 3.25001 12.45C4.1889 12.45 4.95001 11.6889 4.95001 10.75H5.80001C5.80001 11.6889 6.56113 12.45 7.50001 12.45C8.4389 12.45 9.20001 11.6889 9.20001 10.75H10.05C10.05 11.6889 10.8111 12.45 11.75 12.45C12.6889 12.45 13.45 11.6889 13.45 10.75H14.3V0.549988H6.65001V2.24999H7.50001V4.79999H4.10001V0.549988ZM12.6 9.04999V6.49999H2.40001V9.04999H12.6ZM9.20001 4.79999H12.6V2.24999H9.20001V4.79999Z" fill="url(#paint0_linear_26_379)"/>
<defs>
<linearGradient id="paint0_linear_26_379" x1="7.50006" y1="0.691653" x2="7.50006" y2="12.45" gradientUnits="userSpaceOnUse">
<stop stop-color="#FFB31A"/>
<stop offset="1" stop-color="#E0E000"/>
</linearGradient>
</defs>
</svg>
